<svg width="55" height="58" viewBox="0 0 55 58" fill="none" xmlns="http://www.w3.org/2000/svg">
<path d="M54.5804 53.8583C49.3643 49.6955 49.8674 44.3732 50.5327 39.9363C51.7496 39.4788 52.5803 38.3399 52.5061 37.0561L52.4411 35.8836C52.3478 34.2676 50.8621 33.0205 49.1224 33.1019L46.2333 33.2438L46.1497 31.7472C46.0998 30.866 45.6823 30.0538 44.9738 29.4604C44.368 28.9528 43.6135 28.6595 42.8163 28.6145L41.4377 4.0927C41.3243 2.08728 39.4814 0.543237 37.3291 0.647031C36.2894 0.698033 35.3311 1.12462 34.631 1.84827C33.9303 2.57259 33.5746 3.50483 33.6294 4.4732L34.1256 13.2996H30.8188C30.9187 11.9638 30.3684 10.5129 29.2641 9.47175C28.1075 8.38147 26.6322 8.00208 25.156 8.37375C24.1256 6.92824 22.3589 6.01333 20.4542 6.01333C19.5909 6.01333 18.7604 6.1915 18.002 6.53487C16.8414 5.3342 15.1677 4.6214 13.4033 4.6214C11.1584 4.6214 9.12099 5.74222 8.02987 7.52763C6.74758 7.7549 5.65935 8.5404 4.97425 9.75864C4.35677 10.8567 4.15958 12.1453 4.37021 13.2995H3.99963C1.7941 13.2995 0 14.9704 0 17.0243C0 18.7235 1.22837 20.1594 2.90107 20.6052L5.13613 40.5896L3.50451 42.1091C3.03545 42.5459 3.03545 43.2542 3.50439 43.691C3.73892 43.9094 4.04622 44.0187 4.35364 44.0187C4.66095 44.0187 4.96825 43.9095 5.20266 43.6912L5.45665 43.4546L6.64551 54.0848C6.70927 54.6546 7.22493 55.0875 7.8399 55.0875H31.6446C32.5083 55.7229 33.4605 56.2548 34.4796 56.6592C36.7806 57.5741 39.3388 57.9076 41.847 57.9076C47.1843 57.9076 52.2933 56.3967 54.2032 55.7611C54.6063 55.627 54.9023 55.3031 54.98 54.911C55.0577 54.5187 54.9055 54.1177 54.5804 53.8583ZM49.2467 35.3359C49.2597 35.3352 49.2726 35.335 49.2855 35.335C49.6854 35.335 50.0213 35.6278 50.0429 36.0012L50.1078 37.1736C50.1302 37.5597 49.8097 37.8908 49.3951 37.9116L49.3885 37.9119C49.3867 37.9121 49.3849 37.9121 49.383 37.9122L29.5138 38.885C29.3143 38.8946 29.121 38.8307 28.9697 38.7038C28.8195 38.5778 28.7312 38.4072 28.721 38.2197L28.6532 37.0537C28.643 36.8663 28.7125 36.6853 28.8488 36.5442C28.9841 36.404 29.1681 36.3217 29.3667 36.3123C29.3676 36.3123 29.3684 36.3122 29.3693 36.3122L49.2467 35.3359ZM36.4151 3.34567C36.6862 3.0655 37.0556 2.90041 37.4553 2.88084C38.2854 2.8408 38.9955 3.43649 39.0393 4.2098L40.4167 28.7096L37.4053 28.857L36.0277 4.35576C36.0067 3.98432 36.1442 3.62562 36.4151 3.34567ZM42.535 30.8461C42.841 30.8305 43.1363 30.9297 43.3677 31.1235C43.599 31.3172 43.7352 31.5804 43.7511 31.8641L43.835 33.3615L34.5282 33.8186L34.4444 32.3211C34.4283 32.0356 34.534 31.7601 34.7418 31.5453C34.9501 31.3302 35.2341 31.2035 35.5416 31.1884L42.535 30.8461ZM7.10172 10.7966C7.38344 10.2956 7.90895 9.69813 8.81296 9.69611C9.29475 9.69511 9.72923 9.426 9.91656 9.01262C10.5096 7.7039 11.8782 6.85834 13.4031 6.85834C14.736 6.85834 15.9845 7.52416 16.6611 8.59599C16.8373 8.87505 17.1346 9.06932 17.4764 9.12871C17.8179 9.18777 18.1706 9.10646 18.4429 8.90524C19.0225 8.47676 19.718 8.25027 20.4541 8.25027C21.7857 8.25027 23.0001 9.03018 23.4757 10.1908C23.6005 10.4953 23.8615 10.7338 24.1906 10.8442C24.5197 10.9547 24.8841 10.926 25.1887 10.7657C26.0708 10.3012 26.8672 10.3948 27.5556 11.0439C28.1979 11.6495 28.5182 12.5685 28.404 13.2994H6.83332C6.5779 12.566 6.66784 11.568 7.10172 10.7966ZM7.64355 41.4179L18.4282 31.3743C19.0627 31.6966 19.7666 31.8587 20.4712 31.8586C21.5626 31.8586 22.6546 31.4715 23.4856 30.6976C24.2904 29.9481 24.7338 28.951 24.7338 27.89C24.7338 26.829 24.2905 25.832 23.4857 25.0826C21.8236 23.5347 19.119 23.5347 17.4568 25.0826C16.652 25.832 16.2088 26.8292 16.2088 27.89C16.2088 28.5665 16.3896 29.2166 16.7289 29.7935L7.32328 38.5528L5.33211 20.749H14.4484C15.1117 20.749 15.6493 20.2483 15.6493 19.6305C15.6493 19.0126 15.1117 18.5119 14.4484 18.5119H3.99963C3.95736 18.5119 3.71814 18.4977 3.54678 18.4501C2.8857 18.2679 2.40175 17.6981 2.40175 17.0243C2.40175 16.204 3.11843 15.5365 3.99951 15.5365H6.10512H29.2411C29.2421 15.5365 29.2429 15.5366 29.2439 15.5366C29.2448 15.5366 29.2457 15.5365 29.2467 15.5365H34.2514L34.4187 18.512H25.2344C24.5712 18.512 24.0335 19.0127 24.0335 19.6306C24.0335 20.2484 24.5712 20.7492 25.2344 20.7492H34.5445L35.0082 28.9971C34.2199 29.1203 33.503 29.4847 32.9583 30.0475C32.3204 30.7065 31.9965 31.5557 32.0462 32.4382L32.1301 33.9367L29.2452 34.0784C28.404 34.1181 27.6292 34.4626 27.0636 35.0482C26.4994 35.6323 26.2123 36.3848 26.255 37.1711L26.3229 38.3372C26.3655 39.119 26.7349 39.8396 27.3628 40.3663C27.5519 40.5249 27.7586 40.6572 27.9764 40.7675C27.622 41.6899 27.3495 42.5686 27.1672 43.389C26.8747 44.6989 26.8097 46 26.962 47.2637H8.29731L7.64355 41.4179ZM18.6104 27.8901C18.6104 27.4269 18.8037 26.9916 19.1549 26.6646C19.5178 26.3266 19.9945 26.1576 20.4712 26.1576C20.9478 26.1576 21.4245 26.3266 21.7874 26.6646C22.1386 26.9917 22.3319 27.4268 22.3319 27.8901C22.3319 28.3535 22.1386 28.7887 21.7873 29.1156C21.0616 29.7915 19.8806 29.7915 19.1548 29.1156C18.8037 28.7887 18.6104 28.3535 18.6104 27.8901ZM8.92212 52.8503L8.54745 49.5007H27.475C27.7116 50.1873 28.0167 50.8563 28.3932 51.5013C28.6679 51.9721 28.9785 52.4218 29.3183 52.8503H8.92212ZM35.4217 54.6012C30.9297 52.8189 28.5021 48.3955 29.5185 43.8435C29.7069 42.9963 30.0079 42.069 30.4117 41.0814L34.5157 40.8804C33.3601 45.8289 33.9316 49.2882 36.2225 51.1735C36.4509 51.3614 36.7346 51.4538 37.0171 51.4538C37.3495 51.4538 37.6801 51.3261 37.9175 51.0759C38.3567 50.6129 38.3098 49.9061 37.8127 49.497C36.1596 48.1367 35.886 45.1234 37.0089 40.7583L42.0751 40.5103C41.5042 42.8686 40.8657 46.9736 43.6724 51.885C43.8883 52.2629 44.3038 52.4782 44.7335 52.4782C44.9238 52.4782 45.1169 52.4359 45.2967 52.3468C45.8821 52.0565 46.1041 51.3792 45.7924 50.8338C43.1351 46.184 44.0695 42.3184 44.5734 40.388L48.0676 40.2169C47.4626 44.4677 47.1483 49.7438 51.5339 54.2215C47.7845 55.2691 40.7176 56.7068 35.4217 54.6012Z" fill="#BB955F"/>
<path d="M19.8412 18.512C19.178 18.512 18.6404 19.0127 18.6404 19.6306C18.6404 20.2485 19.178 20.7492 19.8412 20.7492H19.8481C20.5113 20.7492 21.0456 20.2485 21.0456 19.6306C21.0456 19.0127 20.5045 18.512 19.8412 18.512Z" fill="#BB955F"/>
</svg>
