<svg width="69" height="69" viewBox="0 0 69 69" fill="none" xmlns="http://www.w3.org/2000/svg">
<path d="M22.2969 17.8594C22.2969 20.3067 24.2871 22.2969 26.7344 22.2969C29.1817 22.2969 31.1719 20.3067 31.1719 17.8594C31.1719 15.4121 29.1817 13.4219 26.7344 13.4219C24.2871 13.4219 22.2969 15.4121 22.2969 17.8594ZM28.9531 17.8594C28.9531 19.083 27.958 20.0781 26.7344 20.0781C25.5107 20.0781 24.5156 19.083 24.5156 17.8594C24.5156 16.6357 25.5107 15.6406 26.7344 15.6406C27.958 15.6406 28.9531 16.6357 28.9531 17.8594Z" fill="#BB955F"/>
<path d="M68.8906 33.3906V26.7343H66.156L57.281 13.4218H41.6155L29.4124 1.21871C27.9824 -0.212388 25.4863 -0.212388 24.0563 1.21871L0.893703 24.3813C0.387828 24.8872 0.109375 25.5595 0.109375 26.2751C0.109375 27.7516 1.31083 28.9531 2.78741 28.9531H4.54688V53.3593H3.4375C1.60259 53.3593 0.109375 54.8526 0.109375 56.6875V65.5625C0.109375 67.3974 1.60259 68.8906 3.4375 68.8906H30.3986L37.0549 64.4531H56.2282L57.4718 65.6967C58.0997 66.3257 58.9362 66.6718 59.8259 66.6718H65.5625C67.3974 66.6718 68.8906 65.1786 68.8906 63.3437V58.9062C68.8906 57.4618 67.9599 56.2415 66.6719 55.7822V33.3906H68.8906ZM66.6719 31.1718H48.9219V28.9531H66.6719V31.1718ZM55.5781 62.2343H37.8281V60.0156H55.5781V62.2343ZM28.9531 55.5781V57.7968H13.4219C12.1982 57.7968 11.2031 58.7919 11.2031 60.0156V62.2343C11.2031 63.458 12.1982 64.4531 13.4219 64.4531H28.9531V66.6718H8.98438V55.5781H28.9531ZM22.2969 53.3593H13.4219V35.6093H22.2969V53.3593ZM28.9531 62.2343H13.4219V60.0156H28.9531V62.2343ZM31.1719 56.541L35.6094 59.4997V62.7502L31.1719 65.7089V56.541ZM56.094 15.6406L63.4902 26.7343H53.3205C53.3461 26.5846 53.3594 26.4315 53.3594 26.2751C53.3594 25.5595 53.0809 24.8872 52.575 24.3813L43.8343 15.6406H56.094ZM2.32812 26.2751C2.32812 26.1541 2.37694 26.0354 2.46236 25.95L25.625 2.78736C25.9168 2.4956 26.3217 2.32808 26.7344 2.32808C27.1471 2.32808 27.552 2.4956 27.8438 2.78736L51.0064 25.95C51.0918 26.0354 51.1406 26.1541 51.1406 26.2751C51.1406 26.528 50.9343 26.7343 50.6813 26.7343H48.6523L26.7344 4.81641L4.81645 26.7343H2.78741C2.53447 26.7343 2.32812 26.528 2.32812 26.2751ZM45.515 26.7343H7.95377L26.7344 7.95372L45.515 26.7343ZM6.76562 28.9531H46.7031V57.7968H37.0549L30.3986 53.3593H24.5156V33.3906H11.2031V53.3593H6.76562V28.9531ZM2.32812 65.5625V56.6875C2.32812 56.0762 2.82623 55.5781 3.4375 55.5781H6.76562V66.6718H3.4375C2.82623 66.6718 2.32812 66.1737 2.32812 65.5625ZM66.6719 63.3437C66.6719 63.955 66.1738 64.4531 65.5625 64.4531H59.8259C59.5297 64.4531 59.2502 64.3377 59.0405 64.128L57.7969 62.8844V59.3655L59.0405 58.1219C59.2502 57.9122 59.5297 57.7968 59.8259 57.7968H65.5625C66.1738 57.7968 66.6719 58.2949 66.6719 58.9062V63.3437ZM64.4531 55.5781H59.8259C58.9373 55.5781 58.1008 55.9242 57.4718 56.5532L56.2282 57.7968H48.9219V33.3906H64.4531V55.5781Z" fill="#BB955F"/>
<path d="M42.2656 33.3906H26.7344V48.9219H42.2656V33.3906ZM40.0469 40.0469H35.6094V35.6094H40.0469V40.0469ZM33.3906 35.6094V40.0469H28.9531V35.6094H33.3906ZM28.9531 42.2656H33.3906V46.7031H28.9531V42.2656ZM35.6094 46.7031V42.2656H40.0469V46.7031H35.6094Z" fill="#BB955F"/>
<path d="M62.2344 51.1406V37.8281H51.1406V51.1406H62.2344ZM53.3594 40.0469H60.0156V48.9219H53.3594V40.0469Z" fill="#BB955F"/>
</svg>
