<svg width="17" height="17" viewBox="0 0 17 17" fill="none" xmlns="http://www.w3.org/2000/svg">
<path d="M7.96875 14.875H9.03125V13.8125H7.96875V14.875ZM8.5 2.125C8.20675 2.125 7.96875 2.363 7.96875 2.65625V7.9815H3.71875C3.4255 7.9815 3.1875 8.2195 3.1875 8.51275C3.1875 8.806 3.4255 9.044 3.71875 9.044H8.5C8.79325 9.044 9.03125 8.806 9.03125 8.51275V2.65625C9.03125 2.363 8.79325 2.125 8.5 2.125ZM3.57692 12.1295L4.31217 12.8663L5.04742 12.1295L4.31217 11.3927L3.57692 12.1295ZM5.14939 4.42158L4.39767 3.67042L3.64647 4.42158L4.39767 5.17278L5.14939 4.42158ZM11.7279 4.39503L12.4631 5.13186L13.1984 4.39503L12.4631 3.6582L11.7279 4.39503ZM11.5722 12.1008L12.3234 12.852L13.0746 12.1008L12.3234 11.3496L11.5722 12.1008ZM13.8125 7.96875V9.03125H14.875V7.96875H13.8125ZM8.5 0C3.80533 0 0 3.80589 0 8.5C0 13.1947 3.80533 17 8.5 17C13.1947 17 17 13.1941 17 8.5C17 3.80589 13.1947 0 8.5 0ZM8.5 15.9375C4.39236 15.9375 1.0625 12.6076 1.0625 8.5C1.0625 4.39236 4.39236 1.0625 8.5 1.0625C12.6076 1.0625 15.9375 4.39236 15.9375 8.5C15.9375 12.6076 12.6076 15.9375 8.5 15.9375Z" fill="white"/>
</svg>
