<svg width="71" height="71" viewBox="0 0 71 71" fill="none" xmlns="http://www.w3.org/2000/svg">
<g clip-path="url(#clip0)">
<path d="M69.6133 55.6016C58.032 55.6016 46.6652 60.3522 38.4273 68.6351C37.8867 69.1784 37.8894 70.0565 38.4321 70.596C38.703 70.8652 39.0562 70.9996 39.4104 70.9996C39.7663 70.9996 40.1222 70.8636 40.3936 70.5911C48.1148 62.8277 58.7649 58.375 69.6133 58.375C70.3792 58.375 71 57.7542 71 56.9883C71 56.2229 70.3792 55.6016 69.6133 55.6016Z" fill="#BB955F"/>
<path d="M40.6959 54.3172C40.2669 53.6824 39.405 53.5155 38.7707 53.9446C32.8409 57.9498 27.833 62.9615 23.8852 68.8399C23.4583 69.4758 23.6273 70.3376 24.2633 70.7645C24.5011 70.9238 24.7692 71.0001 25.0352 71.0001C25.4815 71.0001 25.9203 70.7845 26.1879 70.3864C29.9353 64.8054 34.6907 60.0467 40.3232 56.2424C40.9575 55.8139 41.1244 54.9521 40.6959 54.3172Z" fill="#BB955F"/>
<path d="M69.6133 44.4385C63.4137 44.4385 57.2774 45.4975 51.3752 47.5862C50.6531 47.8414 50.275 48.6338 50.5307 49.3559C50.7317 49.9252 51.2669 50.2806 51.8378 50.2806C51.9911 50.2806 52.1471 50.2546 52.3004 50.2004C57.9047 48.2173 63.7295 47.2119 69.6133 47.2119C70.3792 47.2119 71 46.5911 71 45.8252C71 45.0592 70.3792 44.4385 69.6133 44.4385Z" fill="#BB955F"/>
<path d="M19.8685 61.485C28.9916 49.5901 42.198 41.331 56.7704 38.2358C56.7731 38.2353 56.7758 38.2347 56.778 38.2342C60.9658 37.3453 65.2652 36.8821 69.6133 36.8821C70.3787 36.8821 71 36.2608 71 35.4954C71 34.7295 70.3787 34.1087 69.6133 34.1087C65.6703 34.1087 61.7426 34.4695 57.8814 35.1753V32.1819C62.8937 27.9389 65.6449 22.379 65.6449 16.4584C65.6449 10.3368 62.7041 4.60085 57.3636 0.306894C56.856 -0.100996 56.1329 -0.100996 55.6253 0.306894C50.2853 4.60085 47.344 10.3368 47.344 16.4584C47.344 22.379 50.0958 27.9389 55.1074 32.1819V35.7424C52.4727 36.3421 49.8758 37.1064 47.3332 38.0267V29.9074C47.3332 29.526 47.1793 29.181 46.9301 28.9302V28.9296L39.1645 21.118C38.904 20.8563 38.5502 20.709 38.1808 20.709H22.3262C21.9573 20.709 21.603 20.8563 21.343 21.118L13.5774 28.9296V28.9302C13.3282 29.181 13.1738 29.526 13.1738 29.9079V35.2035C12.2075 35.0263 11.2368 34.8703 10.2617 34.7371V29.7936C14.0519 26.5332 16.1314 22.281 16.1314 17.7508C16.1314 13.0181 13.8629 8.58821 9.74387 5.27579C9.23631 4.8679 8.51369 4.8679 8.00613 5.27579C3.88715 8.58766 1.61856 13.0181 1.61856 17.7508C1.61856 22.2804 3.6981 26.5327 7.48828 29.7931V34.418C5.46616 34.229 3.4305 34.1315 1.38672 34.1315C0.620773 34.1315 0 34.7522 0 35.5182C0 36.2841 0.620773 36.9049 1.38672 36.9049C12.4751 36.9049 23.3207 39.8387 32.882 45.4045C30.5912 46.9613 28.4034 48.6617 26.3319 50.492C18.5853 46.5453 9.97787 44.4625 1.38672 44.4625C0.621315 44.4625 0 45.0833 0 45.8492C0 46.6152 0.621315 47.2359 1.38672 47.2359C9.2038 47.2359 17.0366 49.0538 24.1527 52.506C22.0445 54.5455 20.0738 56.7274 18.2554 59.0339C12.8613 56.7718 7.19198 55.6256 1.38672 55.6256C0.621315 55.6256 0 56.2464 0 57.0123C0 57.7783 0.621315 58.399 1.38672 58.399C6.58691 58.399 11.6712 59.3849 16.528 61.3263C15.5697 62.6578 14.6591 64.0255 13.8027 65.4296L11.6896 68.8915C11.2904 69.5448 11.4973 70.3985 12.1506 70.7972C12.3765 70.9353 12.6256 71.0008 12.8721 71.0008C13.339 71.0008 13.7957 70.7641 14.0568 70.3362L16.1699 66.8743C17.2717 65.0688 18.4623 63.3316 19.7315 61.6638C19.7813 61.6085 19.8279 61.5495 19.8685 61.485ZM50.118 16.4584C50.118 11.5296 52.373 6.86077 56.4947 3.20221C60.6164 6.86077 62.8714 11.5296 62.8714 16.4584C62.8714 20.8016 61.1185 24.9439 57.8814 28.3701V17.7508C57.8814 16.9849 57.2607 16.3641 56.4947 16.3641C55.7288 16.3641 55.108 16.9849 55.108 17.7508V28.3701C51.8703 24.9439 50.118 20.8016 50.118 16.4584ZM4.392 17.7508C4.392 14.2136 5.97535 10.8541 8.875 8.18465C11.7747 10.8535 13.358 14.2136 13.358 17.7508C13.358 20.6743 12.2752 23.477 10.2617 25.8691V16.6415C10.2617 15.8755 9.64095 15.2547 8.875 15.2547C8.1096 15.2547 7.48828 15.8755 7.48828 16.6415V25.8691C5.47483 23.477 4.392 20.6743 4.392 17.7508ZM42.6129 28.5207H30.6687L25.6603 23.4824H37.6045L42.6129 28.5207ZM22.3262 24.0626L26.7583 28.5207H17.8946L22.3262 24.0626ZM15.9473 31.2941H28.7051V40.1128C28.0621 39.817 27.4153 39.531 26.7637 39.2564V34.5989C26.7637 33.8335 26.1429 33.2122 25.377 33.2122H19.2754C18.51 33.2122 17.8887 33.8335 17.8887 34.5989V36.2478C17.2441 36.0799 16.5973 35.9207 15.9473 35.7722V31.2941ZM23.9902 38.1621C22.8906 37.757 21.7812 37.381 20.6621 37.036V35.9856H23.9902V38.1621ZM31.4785 41.4697V31.2941H44.5603V39.1031C42.185 40.0873 39.8638 41.2108 37.6137 42.474C36.8943 42.8775 36.1836 43.2968 35.481 43.7269C34.1702 42.9263 32.8354 42.1733 31.4785 41.4697Z" fill="#BB955F"/>
<path d="M56.4947 13.8672C56.8592 13.8672 57.2173 13.7188 57.4751 13.4604C57.733 13.2025 57.8814 12.845 57.8814 12.4805C57.8814 12.1154 57.7335 11.7579 57.4751 11.5C57.2173 11.2416 56.8592 11.0938 56.4947 11.0938C56.1301 11.0938 55.7721 11.2416 55.5148 11.5C55.2564 11.7579 55.108 12.1154 55.108 12.4805C55.108 12.845 55.2564 13.2025 55.5148 13.4604C55.7721 13.7182 56.1301 13.8672 56.4947 13.8672Z" fill="#BB955F"/>
<path d="M44.4579 50.6527C44.2006 50.9105 44.0516 51.268 44.0516 51.6326C44.0516 51.9987 44.2001 52.3552 44.4579 52.613C44.7163 52.8714 45.0738 53.0193 45.4384 53.0193C45.8035 53.0193 46.161 52.8714 46.4188 52.613C46.6767 52.3552 46.8251 51.9987 46.8251 51.6326C46.8251 51.268 46.6767 50.9105 46.4188 50.6527C46.161 50.3943 45.8035 50.2458 45.4384 50.2458C45.0738 50.2458 44.7163 50.3943 44.4579 50.6527Z" fill="#BB955F"/>
</g>
<defs>
<clipPath id="clip0">
<rect width="71" height="71" fill="white"/>
</clipPath>
</defs>
</svg>
