<svg width="22" height="22" viewBox="0 0 22 22" fill="none" xmlns="http://www.w3.org/2000/svg">
<path d="M11 0C6.72368 0.00488774 3.25828 3.4703 3.25339 7.74661C3.25339 11.8992 10.4035 21.2257 10.7078 21.6204L11 22L11.2922 21.6204C11.5965 21.2257 18.7466 11.8992 18.7466 7.74661C18.7417 3.4703 15.2763 0.00488774 11 0ZM11 20.7834C9.63844 18.9607 3.99116 11.1972 3.99116 7.74661C3.99116 3.87575 7.12914 0.737772 11 0.737772C14.8709 0.737772 18.0088 3.87575 18.0088 7.74661C18.0088 11.1964 12.3616 18.9607 11 20.7834Z" fill="url(#paint0_linear)"/>
<path d="M11 5.16455C9.57389 5.16455 8.4178 6.32064 8.4178 7.74675C8.4178 9.17287 9.57389 10.329 11 10.329C12.4261 10.329 13.5822 9.17287 13.5822 7.74675C13.5806 6.32133 12.4254 5.16616 11 5.16455ZM11 9.59118C9.98137 9.59118 9.15557 8.76539 9.15557 7.74675C9.15557 6.72812 9.98137 5.90232 11 5.90232C12.0186 5.90232 12.8444 6.72812 12.8444 7.74675C12.8432 8.76488 12.0181 9.58999 11 9.59118Z" fill="url(#paint1_linear)"/>
<defs>
<linearGradient id="paint0_linear" x1="11" y1="22" x2="11" y2="-0.428645" gradientUnits="userSpaceOnUse">
<stop stop-color="white"/>
<stop offset="0.927083" stop-color="white"/>
<stop offset="1" stop-color="white"/>
</linearGradient>
<linearGradient id="paint1_linear" x1="11" y1="21.9821" x2="11" y2="-0.447314" gradientUnits="userSpaceOnUse">
<stop stop-color="white"/>
<stop offset="1" stop-color="white"/>
</linearGradient>
</defs>
</svg>
