<svg width="71" height="71" viewBox="0 0 71 71" fill="none" xmlns="http://www.w3.org/2000/svg">
<g clip-path="url(#clip0)">
<path d="M68.6337 64.1177V23.6667C68.6337 11.903 59.0974 2.36667 47.3337 2.36667C35.57 2.36667 26.0337 11.903 26.0337 23.6667V26.2511C24.6204 26.7507 23.6732 28.0843 23.667 29.5833V41.4167C23.6732 42.9157 24.6204 44.2493 26.0337 44.7489V47.3333C26.0337 48.6404 24.9741 49.7 23.667 49.7C22.3599 49.7 21.3004 48.6404 21.3004 47.3333V6.88227C22.9293 6.30853 23.9069 4.64359 23.6142 2.94156C23.3216 1.23953 21.844 -0.00326594 20.117 6.44716e-06H3.55035C1.82335 -0.00326594 0.345787 1.23953 0.0531409 2.94156C-0.239505 4.64359 0.738101 6.30853 2.36702 6.88227V47.3333C2.36702 59.097 11.9034 68.6333 23.667 68.6333C35.4307 68.6333 44.967 59.097 44.967 47.3333V44.7489C46.3803 44.2493 47.3275 42.9157 47.3337 41.4167V29.5833C47.3275 28.0843 46.3803 26.7507 44.967 26.2511V23.6667C44.967 22.3596 46.0266 21.3 47.3337 21.3C48.6408 21.3 49.7004 22.3596 49.7004 23.6667V64.1177C48.0714 64.6915 47.0938 66.3564 47.3865 68.0585C47.6791 69.7605 49.1567 71.0033 50.8837 71H67.4504C69.1774 71.0033 70.6549 69.7605 70.9476 68.0585C71.2402 66.3564 70.2626 64.6915 68.6337 64.1177ZM3.55035 2.36667H20.117C20.7706 2.36667 21.3004 2.89647 21.3004 3.55001C21.3004 4.20354 20.7706 4.73334 20.117 4.73334H3.55035C2.89681 4.73334 2.36702 4.20354 2.36702 3.55001C2.36702 2.89647 2.89681 2.36667 3.55035 2.36667ZM23.667 66.2667C13.2156 66.2543 4.74607 57.7848 4.73368 47.3333V7.10001H18.9337V47.3333C18.9337 49.9475 21.0529 52.0667 23.667 52.0667C26.2812 52.0667 28.4004 49.9475 28.4004 47.3333V44.9667H42.6004V47.3333C42.588 57.7848 34.1185 66.2543 23.667 66.2667ZM44.967 41.4167C44.967 42.0702 44.4372 42.6 43.7837 42.6H27.217C26.5635 42.6 26.0337 42.0702 26.0337 41.4167V29.5833C26.0337 28.9298 26.5635 28.4 27.217 28.4H43.7837C44.4372 28.4 44.967 28.9298 44.967 29.5833V41.4167ZM47.3337 18.9333C44.7195 18.9333 42.6004 21.0525 42.6004 23.6667V26.0333H28.4004V23.6667C28.4004 13.2101 36.8771 4.73334 47.3337 4.73334C57.7903 4.73334 66.267 13.2101 66.267 23.6667V63.9H52.067V23.6667C52.067 21.0525 49.9478 18.9333 47.3337 18.9333ZM67.4504 68.6333H50.8837C50.2302 68.6333 49.7004 68.1035 49.7004 67.45C49.7004 66.7965 50.2302 66.2667 50.8837 66.2667H67.4504C68.1039 66.2667 68.6337 66.7965 68.6337 67.45C68.6337 68.1035 68.1039 68.6333 67.4504 68.6333Z" fill="#BB955F"/>
<path d="M8.28331 9.46655C7.62977 9.46655 7.09998 9.99635 7.09998 10.6499V13.0166C7.09998 13.6701 7.62977 14.1999 8.28331 14.1999C8.93685 14.1999 9.46664 13.6701 9.46664 13.0166V10.6499C9.46664 9.99635 8.93685 9.46655 8.28331 9.46655Z" fill="#BB955F"/>
<path d="M8.28331 16.5667C7.62977 16.5667 7.09998 17.0964 7.09998 17.75V34.3167C7.09998 34.9702 7.62977 35.5 8.28331 35.5C8.93685 35.5 9.46664 34.9702 9.46664 34.3167V17.75C9.46664 17.0964 8.93685 16.5667 8.28331 16.5667Z" fill="#BB955F"/>
</g>
<defs>
<clipPath id="clip0">
<rect width="71" height="71" fill="white"/>
</clipPath>
</defs>
</svg>
