<svg width="61" height="59" viewBox="0 0 61 59" fill="none" xmlns="http://www.w3.org/2000/svg">
<path d="M48.1695 46.5752C47.6506 46.2006 46.909 46.2946 46.5125 46.7844C46.116 47.2743 46.2152 47.9749 46.7339 48.3494L48.754 49.8076C48.9676 49.9618 49.2201 50.037 49.4713 50.037C49.7946 50.037 50.1156 49.9122 50.3479 49.6701L54.2091 45.6434C54.6473 45.1864 54.6104 44.4803 54.1264 44.0664C53.6426 43.6526 52.8949 43.6875 52.4567 44.1445L49.3256 47.4099L48.1695 46.5752Z" fill="#BB955F"/>
<path d="M60.7204 40.6155C60.7069 40.0462 60.242 39.578 59.6416 39.5284C56.8295 39.2963 53.3691 37.5122 50.8254 34.9835C50.6022 34.7617 50.2926 34.6361 49.9688 34.636C49.9686 34.636 49.9685 34.636 49.9684 34.636C49.6447 34.636 49.3352 34.7614 49.112 34.9829C47.9702 36.1165 46.6449 37.0997 45.2772 37.8613C42.8773 35.3309 39.9235 33.4666 36.4616 32.2931C36.4314 32.2816 36.4009 32.2713 36.3697 32.2622C36.1001 32.172 35.8273 32.0859 35.5515 32.0039C38.4793 29.246 40.4486 25.6217 40.4486 22.3704V20.6164C41.8326 20.0472 42.8032 18.7425 42.8032 17.2271C42.8032 15.653 41.7542 14.3066 40.2822 13.7768C39.6746 8.20553 35.5188 3.52214 29.8101 1.9727C29.6415 1.21384 28.9276 0.64209 28.0748 0.64209H23.7913C22.9688 0.64209 22.2774 1.17442 22.0779 1.8931C19.2699 2.60038 16.705 4.11008 14.782 6.20905C12.8301 8.3395 11.6164 11.0001 11.3081 13.7774C9.83534 14.3075 8.78601 15.6535 8.78601 17.2272C8.78601 18.7431 9.75803 20.0482 11.1439 20.617V22.3706C11.1439 25.6188 13.1136 29.2445 16.0413 32.0043C15.7735 32.0838 15.5084 32.1669 15.2463 32.2543C15.1948 32.2681 15.1447 32.2852 15.0958 32.3054C11.221 33.6256 7.98598 35.811 5.45254 38.8289C3.01604 41.7315 1.28394 45.316 0.304464 49.4836C-0.044132 50.9729 -0.306317 52.8446 0.768903 54.1091C1.81918 55.3443 3.69845 55.5026 5.21849 55.5026H12.9511C13.6039 55.5026 14.1332 55.0026 14.1332 54.3861C14.1332 53.7696 13.6039 53.2696 12.9511 53.2696H5.21849C3.80437 53.2696 2.9275 53.0816 2.61224 52.7108C2.2783 52.3181 2.27854 51.3944 2.61259 49.9664C3.84113 44.74 6.84503 38.3443 14.0826 35.1151C13.86 38.8869 16.0238 41.3523 17.3991 42.917C17.6096 43.1566 17.9165 43.3022 18.2457 43.3188C18.5747 43.336 18.8965 43.2215 19.1328 43.0044L25.7947 36.8853L32.4599 43.0047C32.6811 43.2076 32.9768 43.3205 33.2838 43.3205C33.305 43.3205 33.3261 43.32 33.3475 43.3188C33.6767 43.3021 33.9837 43.1562 34.1941 42.9162C35.5676 41.3502 37.7282 38.8833 37.5076 35.1195C39.6073 36.0602 41.4625 37.3184 43.0578 38.8857C42.1052 39.2339 41.1685 39.4564 40.2951 39.5285C39.695 39.578 39.2304 40.0459 39.2163 40.6147C39.1174 44.6065 39.8218 47.4663 41.7275 50.8136C41.7436 50.842 42.3876 51.9323 43.3911 53.2699H23.6528C22.9999 53.2699 22.4707 53.7698 22.4707 54.3863C22.4707 55.0028 22.9999 55.5028 23.6528 55.5028H45.2684C46.6936 56.9904 48.3744 58.2565 49.9683 58.2565C53.8138 58.2565 58.1667 50.8881 58.2086 50.8144C60.1112 47.4665 60.8154 44.6071 60.7204 40.6155ZM37.8693 13.5358H31.361C30.1314 10.502 29.8988 8.00032 29.8571 4.3279C34.1207 5.75219 37.2202 9.30548 37.8693 13.5358ZM24.3818 2.87504H27.4843C27.4917 7.19668 27.6077 10.1236 28.8464 13.5358H23.022C24.2586 10.1235 24.3745 7.19624 24.3818 2.87504ZM22.0102 4.23981C21.9712 7.96057 21.7452 10.4777 20.508 13.5359H13.7226C14.3969 9.25055 17.6585 5.60091 22.0102 4.23981ZM12.6976 15.7687H20.6055C20.6751 15.8221 20.7425 15.8289 20.799 15.7687H38.8949C39.7464 15.7687 40.4391 16.4229 40.4391 17.2272C40.4391 18.0332 39.7465 18.6889 38.8949 18.6889H12.6976C11.8444 18.6889 11.1502 18.0332 11.1502 17.2272C11.1502 16.423 11.8443 15.7687 12.6976 15.7687ZM13.5081 22.3706V20.9217H38.0843V22.3706C38.0843 26.6272 33.7182 31.8917 28.7407 33.6369C26.5627 34.4013 25.0164 34.4007 22.8334 33.6344C17.8657 31.8821 13.5081 26.6185 13.5081 22.3706ZM18.4139 40.5499C17.1905 39.0413 16.0124 37.0607 16.5786 34.1856C17.1001 34.0267 17.6388 33.8816 18.1975 33.7533C19.3895 34.5793 20.6751 35.2568 22.0079 35.7269C22.4369 35.8774 22.8497 36.0015 23.2535 36.1046L18.4139 40.5499ZM33.1774 40.5492L28.3349 36.1033C28.7335 36.0011 29.1408 35.8787 29.5638 35.7302C30.9032 35.2606 32.1951 34.5818 33.3927 33.7531C33.9445 33.8799 34.4841 34.0236 35.0106 34.1846C35.5781 37.0556 34.4005 39.0383 33.1774 40.5492ZM56.1251 49.7589C54.7272 52.223 51.4534 56.0233 49.9683 56.0233C48.4831 56.0233 45.2093 52.223 43.8106 49.7573C42.2485 47.0139 41.6074 44.7262 41.5727 41.6112C42.8479 41.382 44.1755 40.9325 45.481 40.3048C45.5268 40.2859 45.5715 40.2637 45.6154 40.2389C47.1398 39.4906 48.6306 38.5001 49.9678 37.323C52.4854 39.5415 55.5504 41.106 58.3629 41.6113C58.3257 44.7267 57.6848 47.0149 56.1251 49.7589Z" fill="#BB955F"/>
<path d="M18.3019 53.2696C17.6491 53.2696 17.1199 53.7696 17.1199 54.3861C17.1199 55.0026 17.6491 55.5026 18.3019 55.5026H18.3087C18.9615 55.5026 19.4873 55.0026 19.4873 54.3861C19.4873 53.7696 18.9548 53.2696 18.3019 53.2696Z" fill="#BB955F"/>
</svg>
