<svg width="71" height="71" viewBox="0 0 71 71" fill="none" xmlns="http://www.w3.org/2000/svg">
<g clip-path="url(#clip0)">
<path d="M51.7709 0.000976562H7.39617C7.15945 0.0216386 6.91539 0.0127636 6.67438 0.034951C2.8343 0.502689 -0.0400694 3.78295 0.000422527 7.65118V53.2507C0.000422527 56.5183 2.64946 59.1674 5.9171 59.1674C9.18475 59.1674 11.8338 56.5185 11.8338 53.2507V51.7715H16.2713V61.3859C16.2753 65.0603 19.2531 68.0381 22.9275 68.0422C26.6018 68.0381 29.5797 65.0603 29.5837 61.3859V59.1672H34.0212V56.2089H28.1045C27.2876 56.2089 26.6253 56.8712 26.6253 57.6881V61.3861C26.6253 63.4284 24.9697 65.084 22.9273 65.084C20.885 65.084 19.2294 63.4284 19.2294 61.3861V50.2924C19.2294 49.4755 18.5671 48.8132 17.7502 48.8132H10.3546C9.53766 48.8132 8.87537 49.4755 8.87537 50.2924V53.2507C8.87537 54.8845 7.55092 56.2089 5.9171 56.2089C4.28328 56.2089 2.95883 54.8845 2.95883 53.2507V7.65118C2.90766 5.30473 4.62663 3.29414 6.95256 2.98005C7.10052 2.95939 7.24834 2.95939 7.39631 2.95939H7.46287C8.54381 2.97173 9.58218 3.38205 10.3798 4.1116C11.305 4.95334 11.8328 6.14591 11.8338 7.39686C11.8338 8.21377 12.4961 8.87606 13.313 8.87606H57.6877C58.5046 8.87606 59.1669 8.21377 59.1669 7.39686C59.1618 3.31411 55.8535 0.00583005 51.7709 0.000976562ZM14.6441 5.91752C14.4239 4.84531 13.9693 3.83509 13.3128 2.95925H51.7709C53.6509 2.9616 55.3263 4.14599 55.9554 5.91752H14.6441Z" fill="#BB955F"/>
<path d="M57.6876 14.7917H28.1045C25.6537 14.7917 23.667 16.7785 23.667 19.2292V28.1042C23.667 30.5549 25.6537 32.5416 28.1045 32.5416H57.6876C60.1383 32.5416 62.125 30.5549 62.125 28.1042V19.2292C62.125 16.7785 60.1383 14.7917 57.6876 14.7917ZM59.1668 28.1042C59.1668 28.9211 58.5045 29.5834 57.6876 29.5834H28.1045C27.2876 29.5834 26.6253 28.9211 26.6253 28.1042V19.2292C26.6253 18.4123 27.2876 17.75 28.1045 17.75H57.6876C58.5045 17.75 59.1668 18.4123 59.1668 19.2292V28.1042Z" fill="#BB955F"/>
<path d="M25.1461 22.1876V19.2294H22.1878C21.3709 19.2294 20.7086 19.8917 20.7086 20.7086V26.6253C20.7086 27.4422 21.3709 28.1045 22.1878 28.1045H25.1461V25.1462H23.667V22.1879H25.1461V22.1876Z" fill="#BB955F"/>
<path d="M63.6042 19.2292H60.6459V22.1875H62.1251V25.1458H60.6459V28.1041H63.6042C64.4211 28.1041 65.0834 27.4418 65.0834 26.6249V20.7082C65.0833 19.8915 64.4211 19.2292 63.6042 19.2292Z" fill="#BB955F"/>
<path d="M66.5626 22.1876H60.6459V25.1459H66.5626C67.3795 25.1459 68.0418 25.8082 68.0418 26.6251V34.0208C68.0418 34.8378 67.3795 35.5001 66.5626 35.5001H48.8127C44.7301 35.5049 41.4218 38.8133 41.4169 42.8958V48.8125H44.3752V42.8958C44.3752 40.4451 46.3619 38.4583 48.8127 38.4583H66.5626C69.0133 38.4583 71 36.4716 71 34.0208V26.6251C71 24.1742 69.0133 22.1876 66.5626 22.1876Z" fill="#BB955F"/>
<path d="M47.3334 47.3333H38.4585C37.6415 47.3333 36.9792 47.9955 36.9792 48.8125V65.0832C36.9792 68.3508 39.6281 70.9998 42.8959 70.9998C46.1637 70.9998 48.8126 68.3509 48.8126 65.0832V48.8125C48.8126 47.9955 48.1503 47.3333 47.3334 47.3333ZM45.8543 65.0832C45.8543 66.717 44.5299 68.0414 42.8961 68.0414C41.2622 68.0414 39.9378 66.717 39.9378 65.0832V50.2915H45.8545V65.0832H45.8543Z" fill="#BB955F"/>
<path d="M53.2501 7.396H50.2919V11.8335H53.2501V7.396Z" fill="#BB955F"/>
<path d="M29.5835 35.5001H26.6252V45.8543H29.5835V35.5001Z" fill="#BB955F"/>
<path d="M29.5835 48.8125H26.6252V51.7708H29.5835V48.8125Z" fill="#BB955F"/>
<path d="M13.3128 17.7502H10.3546V36.9794H13.3128V17.7502Z" fill="#BB955F"/>
<path d="M13.3128 39.9375H10.3546V42.8957H13.3128V39.9375Z" fill="#BB955F"/>
<path d="M56.2084 23.6667H53.2501V26.625H56.2084V23.6667Z" fill="#BB955F"/>
<path d="M50.2917 23.6667H47.3334V26.625H50.2917V23.6667Z" fill="#BB955F"/>
<path d="M47.3334 62.125H38.4585V65.0833H47.3334V62.125Z" fill="#BB955F"/>
</g>
<defs>
<clipPath id="clip0">
<rect width="71" height="71" fill="white"/>
</clipPath>
</defs>
</svg>
