<svg width="89" height="84" viewBox="0 0 89 84" fill="none" xmlns="http://www.w3.org/2000/svg">
<path d="M9.95573 74.6012C9.3611 74.0831 8.44439 74.0831 7.84958 74.6012C7.71852 74.7372 7.61319 74.8935 7.5381 75.0633C7.37976 75.4021 7.37976 75.7881 7.5381 76.1269C7.61354 76.2965 7.71887 76.4527 7.84958 76.589C8.27387 76.99 8.91421 77.1064 9.46608 76.883C9.64564 76.812 9.81128 76.7125 9.95573 76.5892C10.0864 76.4529 10.1918 76.2967 10.2672 76.127C10.4256 75.7883 10.4256 75.4023 10.2672 75.0635C10.1923 74.8937 10.087 74.7374 9.95573 74.6012Z" fill="black"/>
<path d="M72.1187 74.3075C72.0238 74.3376 71.9336 74.38 71.8507 74.4333C71.7733 74.4851 71.6993 74.5412 71.6291 74.6014C71.4949 74.7353 71.3892 74.8921 71.3176 75.0636C71.2416 75.2319 71.2013 75.4125 71.1989 75.5954C71.1935 75.779 71.2342 75.9613 71.3176 76.1273C71.393 76.2969 71.4984 76.4531 71.6291 76.5894C72.0534 76.9903 72.6937 77.1068 73.2456 76.8834C73.6181 76.7559 73.9115 76.479 74.0465 76.1274C74.1227 75.9591 74.163 75.7785 74.1652 75.5956C74.1595 75.225 74.0058 74.8701 73.735 74.6016C73.3057 74.2097 72.6716 74.0943 72.1187 74.3075Z" fill="black"/>
<path d="M88.5648 22.8083C88.2866 22.5457 87.9092 22.3984 87.5158 22.3985C87.1223 22.3984 86.745 22.5457 86.4669 22.8083C86.1886 23.071 86.0325 23.4272 86.0327 23.7984V32.1979H75.65V29.3982C75.6436 27.5129 74.3047 25.8633 72.3776 25.3666L65.8161 3.07467C65.2764 1.26009 63.5256 0.00442941 61.5286 0H40.824C38.8265 0.00492157 37.0751 1.26091 36.535 3.07598L29.9752 25.3666C28.0481 25.8633 26.7093 27.5129 26.7027 29.3982V32.198H25.2195C22.7631 32.2005 20.7724 34.0794 20.7698 36.3978V55.9966H17.8033V29.3982H19.2864C20.924 29.3962 22.2507 28.1438 22.253 26.5983V13.9991C22.2509 12.4535 20.924 11.2013 19.2864 11.1992H2.9709C1.33354 11.2013 0.00662005 12.4537 0.00453424 13.9991V62.9961C0.00436042 63.3675 0.160448 63.7236 0.43873 63.9861C0.717012 64.2486 1.09437 64.3961 1.48772 64.3959H3.33766L3.90187 68.6531C0.670429 70.7255 -0.75105 74.5448 0.397362 78.0695C1.54577 81.594 4.99535 83.9995 8.90225 84.0002C12.8091 84.0008 16.2596 81.5963 17.4092 78.0721C18.5588 74.548 17.1388 70.7282 13.908 68.6547L14.4821 64.3961H67.117L67.6812 68.6532C64.4498 70.7257 63.0283 74.545 64.1767 78.0695C65.3251 81.594 68.7747 83.9995 72.6816 84.0002C76.5885 84.0008 80.0389 81.5963 81.1885 78.0721C82.3382 74.548 80.9181 70.7282 77.6873 68.6547L78.2615 64.3961H80.0994C80.4929 64.3962 80.8703 64.2489 81.1484 63.9863C81.4265 63.7236 81.5828 63.3675 81.5826 62.9962V34.9978H86.0323V43.3972C86.0323 44.1704 86.6963 44.7971 87.5155 44.7971C88.3347 44.7971 88.9987 44.1704 88.9987 43.3972V23.7986C88.9992 23.4272 88.8431 23.071 88.5648 22.8083ZM39.3929 3.82652C39.5737 3.22117 40.1577 2.80218 40.824 2.79988H61.5286C62.1943 2.80185 62.7778 3.22035 62.9582 3.82521L63.4804 5.59976H38.8713L39.3929 3.82652ZM38.0474 8.39948H64.3044L69.2483 25.1984H33.1044L38.0474 8.39948ZM29.6694 29.3982C29.6699 28.6253 30.3338 27.9988 31.1526 27.9983H71.2001C72.019 27.9988 72.6828 28.6253 72.6833 29.3982V37.7976C72.6828 38.5705 72.019 39.197 71.2001 39.1975H31.1526C30.3338 39.197 29.6699 38.5705 29.6694 37.7976V29.3982ZM69.0592 41.9974L66.0826 49.4891C65.8639 50.0338 65.3121 50.3949 64.695 50.3969H37.6577C37.0401 50.3947 36.4881 50.0331 36.2701 49.4877L33.2933 41.9974H69.0592ZM2.9709 13.9991H19.2866L19.2896 26.5983H2.9709V13.9991ZM2.9709 29.3982H14.8369V55.9964H2.9709V29.3982ZM14.8369 75.5953C14.8336 78.6867 12.1792 81.1919 8.90398 81.1949C5.62735 81.1949 2.97108 78.6878 2.97108 75.5953C2.97108 72.5027 5.62735 69.9957 8.90398 69.9957C12.1806 69.9957 14.8369 72.5027 14.8369 75.5953ZM6.32697 64.3959H11.4914L11.0784 67.4599C9.65401 67.108 8.15761 67.1077 6.733 67.4591L6.32697 64.3959ZM78.6162 75.5953C78.6129 78.6867 75.9586 81.1919 72.6833 81.1949C69.4067 81.1949 66.7504 78.6878 66.7504 75.5953C66.7504 72.5027 69.4067 69.9957 72.6833 69.9957C75.9599 69.9957 78.6162 72.5027 78.6162 75.5953ZM70.1065 64.3959H75.2708L74.8578 67.4599C73.4333 67.108 71.9369 67.1077 70.5123 67.4591L70.1065 64.3959ZM78.6162 61.5962H2.9709V58.7963H78.6162V61.5962ZM78.6162 55.9964H23.7363V36.3978C23.7369 35.6248 24.4007 34.9984 25.2195 34.9979H26.7027V37.7976C26.7084 39.718 28.0945 41.3897 30.0682 41.8566L33.4917 50.4707C34.1466 52.1071 35.8041 53.1918 37.6574 53.1967H64.6947C66.5476 53.1918 68.2049 52.1079 68.8605 50.4721L72.2842 41.8566C74.2577 41.3897 75.6438 39.718 75.6495 37.7976V34.9978H78.616V55.9964H78.6162Z" fill="black"/>
<path d="M7.41939 16.799C7.02586 16.7988 6.64851 16.9461 6.3704 17.2088C6.09212 17.4714 5.93603 17.8276 5.9362 18.1988V22.3985C5.9362 23.1717 6.60019 23.7984 7.41939 23.7984C8.23859 23.7984 8.90257 23.1717 8.90257 22.3985V18.1988C8.90274 17.8274 8.74665 17.4712 8.46837 17.2088C8.19026 16.9461 7.81291 16.7988 7.41939 16.799Z" fill="black"/>
<path d="M14.8357 16.799C14.0165 16.799 13.3525 17.4256 13.3525 18.1988V22.3985C13.3525 23.1717 14.0165 23.7984 14.8357 23.7984C15.6549 23.7984 16.3188 23.1717 16.3188 22.3985V18.1988C16.319 17.4258 15.6549 16.799 14.8357 16.799Z" fill="black"/>
</svg>
