<svg width="71" height="50" viewBox="0 0 71 50" fill="none" xmlns="http://www.w3.org/2000/svg">
<path d="M57.4794 16.0961H53.0095L54.3563 1.49109C54.3588 1.46463 54.3592 1.43857 54.3593 1.4125C54.3593 1.41028 54.3596 1.40818 54.3596 1.40595C54.3596 1.40556 54.3596 1.4053 54.3596 1.40491C54.3596 1.0074 54.1057 0.657035 53.7325 0.504711C53.7293 0.503401 53.7263 0.501829 53.7231 0.50052C53.6999 0.491351 53.6759 0.483492 53.6518 0.475896C53.6428 0.473145 53.6342 0.46974 53.6252 0.46712C53.6055 0.461488 53.5852 0.457035 53.5651 0.452451C53.551 0.449308 53.5374 0.44551 53.5231 0.44289C53.5055 0.439616 53.4872 0.43752 53.4692 0.435032C53.4523 0.432674 53.4356 0.429923 53.4186 0.428483C53.4156 0.428221 53.413 0.427696 53.4101 0.427434C53.3918 0.425863 53.3738 0.426125 53.3556 0.42547C53.3434 0.425077 53.3315 0.423767 53.3193 0.423767H53.3062C53.3051 0.423767 53.304 0.423767 53.303 0.423767H32.0347C31.4606 0.423767 30.9947 0.863845 30.9947 1.40608C30.9947 1.94701 31.4606 2.3884 32.0347 2.3884H52.1856L50.1158 24.8344C50.1155 24.8361 50.1155 24.8378 50.1152 24.8395L49.593 30.503H13.4537L14.0582 24.6093H20.9393C21.5138 24.6093 21.9793 24.1695 21.9793 23.627C21.9793 23.0845 21.5138 22.6447 20.9393 22.6447H14.2598L15.5362 10.2027H26.4878C27.0623 10.2027 27.5279 9.76286 27.5279 9.22036C27.5279 8.67786 27.0623 8.23804 26.4878 8.23804H15.7378L16.338 2.3884H27.8745C28.4473 2.3884 28.9146 1.94701 28.9146 1.40608C28.9146 0.863845 28.4473 0.423767 27.8745 0.423767H15.394C15.3935 0.423767 15.3931 0.423898 15.3925 0.423898C14.904 0.423767 14.4802 0.748588 14.3777 1.19888C14.377 1.20216 14.3758 1.2053 14.3751 1.20857C14.3698 1.23307 14.3663 1.25808 14.3629 1.28323C14.3619 1.29122 14.3601 1.29882 14.3593 1.30681C14.3591 1.30838 14.3587 1.30982 14.3586 1.31139L13.648 8.23804H1.04004C0.465523 8.23804 0 8.67786 0 9.22036C0 9.76286 0.465523 10.2027 1.04004 10.2027H13.4464L12.17 22.6447H8.4593C7.88478 22.6447 7.41925 23.0845 7.41925 23.627C7.41925 24.1695 7.88478 24.6093 8.4593 24.6093H11.9685L11.2735 31.3835C11.2734 31.3846 11.2734 31.3856 11.2732 31.3865L10.1987 41.8619C10.1985 41.863 10.1984 41.8643 10.1982 41.8654L10.1978 41.8692C10.1964 41.8828 10.1966 41.8962 10.1958 41.9098C10.1948 41.9279 10.1928 41.9455 10.1928 41.9639C10.1928 41.9647 10.193 41.9655 10.193 41.9664C10.193 41.9916 10.1949 42.0165 10.1969 42.0414C10.1977 42.0494 10.1974 42.0575 10.1984 42.0654C10.2012 42.0908 10.2057 42.1158 10.2106 42.1407C10.212 42.148 10.2127 42.1555 10.2142 42.1627C10.2182 42.1816 10.2239 42.1998 10.2292 42.2182C10.2328 42.2312 10.2357 42.2444 10.2399 42.2571C10.2411 42.2607 10.2428 42.2641 10.2439 42.2677C10.2942 42.4139 10.3796 42.5452 10.4911 42.6523C10.4932 42.6543 10.4949 42.6565 10.4969 42.6583C10.508 42.6688 10.5201 42.6782 10.5318 42.6882C10.6034 42.7503 10.6844 42.8029 10.773 42.8442C10.7915 42.8528 10.8097 42.8619 10.8285 42.8693C10.8342 42.8717 10.8403 42.8732 10.8461 42.8753C10.8722 42.8852 10.8984 42.8946 10.9254 42.9026C10.9279 42.9032 10.9303 42.9036 10.9328 42.9044C10.9636 42.9131 10.9946 42.9207 11.0264 42.9268C11.0306 42.9276 11.0349 42.9279 11.0389 42.9286C11.0691 42.934 11.0995 42.9386 11.1304 42.9415C11.1311 42.9415 11.1317 42.9416 11.1323 42.9417C11.1665 42.9449 11.2003 42.9465 11.2339 42.9465C11.2343 42.9465 11.2348 42.9463 11.2354 42.9463H15.8654C16.3767 46.6075 19.6999 49.4431 23.7138 49.4431C27.7274 49.4431 31.0507 46.6075 31.562 42.9463H48.2441C48.7556 46.6075 52.0787 49.4431 56.0924 49.4431C60.106 49.4431 63.4296 46.6075 63.941 42.9463H68.5721C68.5728 42.9463 68.5737 42.9465 68.5743 42.9465C68.609 42.9465 68.6431 42.9445 68.677 42.9414C68.6831 42.9408 68.6889 42.9397 68.695 42.939C68.722 42.936 68.7489 42.9324 68.7753 42.9275C68.7867 42.9254 68.7976 42.9225 68.8088 42.92C68.8292 42.9156 68.8497 42.9108 68.8697 42.9052C68.8833 42.9014 68.8965 42.897 68.9098 42.8926C68.9268 42.8871 68.9439 42.8814 68.9607 42.8749C68.9751 42.8696 68.9888 42.8637 69.0028 42.8578C69.0181 42.8511 69.0334 42.8443 69.0482 42.8371C69.0623 42.8303 69.0759 42.8232 69.0895 42.8159C69.1038 42.808 69.1179 42.7999 69.132 42.7915C69.145 42.7837 69.158 42.7757 69.1705 42.7673C69.1846 42.758 69.1981 42.7482 69.2118 42.7382C69.2232 42.7297 69.2347 42.7213 69.2458 42.7124C69.2601 42.701 69.2735 42.6891 69.2871 42.6769C69.2966 42.6684 69.3064 42.66 69.3156 42.6511C69.33 42.6372 69.3437 42.6226 69.3574 42.6078C69.3648 42.5998 69.3724 42.592 69.3795 42.5839C69.3947 42.5661 69.4086 42.5478 69.4225 42.5293C69.4272 42.5229 69.4324 42.5169 69.437 42.5103C69.4539 42.4863 69.4699 42.4617 69.4846 42.4363C69.4857 42.4347 69.4868 42.4333 69.4875 42.4316C69.5032 42.4044 69.5176 42.3765 69.5305 42.3476C69.5341 42.3394 69.5369 42.3309 69.5403 42.3226C69.5488 42.3023 69.5571 42.282 69.5642 42.2609C69.5688 42.2473 69.5721 42.2333 69.5761 42.2195C69.5807 42.2032 69.5855 42.1869 69.5894 42.1703C69.5929 42.1555 69.5951 42.1403 69.5977 42.1252C69.6001 42.112 69.6032 42.099 69.605 42.0856C69.6491 41.7518 70.4635 35.5804 70.8272 31.5898C70.8276 31.586 70.8278 31.5821 70.8282 31.5783C70.9329 30.4279 71 29.4592 71 28.8662C71 21.8248 64.9347 16.0961 57.4794 16.0961ZM52.8282 18.061H57.0831L56.5397 23.9543H52.2848L52.8282 18.061ZM23.7141 47.4784C20.4945 47.4784 17.8753 45.0045 17.8753 41.9637C17.8753 38.923 20.4947 36.4492 23.7141 36.4492C26.9335 36.4492 29.5528 38.923 29.5528 41.9637C29.5528 45.0045 26.9335 47.4784 23.7141 47.4784ZM56.0924 47.4784C52.873 47.4784 50.2539 45.0045 50.2539 41.9637C50.2539 38.923 52.8732 36.4492 56.0924 36.4492C59.312 36.4492 61.9312 38.923 61.9312 41.9637C61.9312 45.0045 59.312 47.4784 56.0924 47.4784ZM67.6531 40.981H63.9413C63.4302 37.3196 60.1067 34.4839 56.0927 34.4839C52.079 34.4839 48.7556 37.3197 48.2444 40.981H31.5624C31.0513 37.3196 27.728 34.4839 23.7141 34.4839C19.7002 34.4839 16.3767 37.3197 15.8655 40.981H12.3787L13.2522 32.4671H50.5461V32.4676C50.5467 32.4676 50.5471 32.4676 50.5476 32.4676C50.5824 32.4676 50.617 32.4658 50.6511 32.4625C50.6575 32.462 50.6637 32.4607 50.6701 32.4599C50.6973 32.4569 50.7243 32.4532 50.7509 32.4482C50.7624 32.446 50.7737 32.443 50.785 32.4404C50.8058 32.4357 50.8266 32.4311 50.8469 32.4253C50.8607 32.4214 50.8739 32.4167 50.8874 32.4122C50.9048 32.4065 50.9223 32.4008 50.9392 32.3943C50.9538 32.3886 50.9678 32.3824 50.9819 32.3761C50.9973 32.3694 51.0127 32.3627 51.0276 32.3554C51.0417 32.3483 51.0556 32.3407 51.0696 32.3331C51.0839 32.3253 51.098 32.3173 51.1119 32.3089C51.1253 32.3006 51.1381 32.292 51.151 32.2833C51.1647 32.2742 51.178 32.2647 51.1913 32.2549C51.2033 32.2459 51.2151 32.2366 51.2267 32.227C51.2399 32.2163 51.2528 32.2053 51.2653 32.1939C51.2758 32.1843 51.2863 32.1745 51.2966 32.1644C51.3091 32.1521 51.3211 32.1394 51.3331 32.1264C51.3424 32.1162 51.3515 32.106 51.3604 32.0955C51.3719 32.0818 51.3829 32.0676 51.3937 32.0533C51.4018 32.0426 51.4098 32.0319 51.4175 32.0209C51.4276 32.0061 51.4373 31.9909 51.4466 31.9754C51.4537 31.9639 51.4609 31.9524 51.4673 31.9406C51.476 31.9251 51.4835 31.9094 51.4914 31.8936C51.4975 31.8809 51.5038 31.8684 51.5093 31.8553C51.5161 31.8399 51.5218 31.824 51.5278 31.8082C51.5329 31.7941 51.5383 31.7801 51.5429 31.7657C51.5475 31.7505 51.5512 31.7349 51.5554 31.7195C51.5594 31.7039 51.5638 31.6884 51.567 31.6726C51.5702 31.6571 51.5721 31.6414 51.5746 31.6257C51.5771 31.6095 51.58 31.5935 51.5817 31.577C51.582 31.5746 51.5825 31.5724 51.5827 31.57L52.1039 25.9184H57.4792C60.6657 25.9184 62.1029 27.4778 63.6243 29.1289C64.8797 30.4912 66.2813 32.0112 68.6637 32.382C68.3611 35.4036 67.872 39.2825 67.6531 40.981ZM68.8414 30.4134C67.2959 30.1158 66.345 29.0896 65.1931 27.8396C63.7524 26.2764 61.9936 24.3687 58.6221 24.0133L59.1602 18.1786C64.6743 18.9488 68.9199 23.4476 68.9199 28.8664C68.9199 29.2346 68.8908 29.7695 68.8414 30.4134Z" fill="#BB955F"/>
</svg>
