<svg width="101" height="101" viewBox="0 0 101 101" fill="none" xmlns="http://www.w3.org/2000/svg">
<path d="M72.8541 48.0379L37.3463 24.3661C35.3812 23.0558 32.7461 24.4704 32.7461 26.8281V74.1719C32.7461 76.5351 35.3857 77.9412 37.3463 76.6339L72.8541 52.9621C74.6124 51.7901 74.6068 49.2063 72.8541 48.0379ZM38.6641 68.6429V32.3571L65.8784 50.5L38.6641 68.6429ZM50.5 0C22.5652 0 0 22.5721 0 50.5C0 78.435 22.5723 101 50.5 101C78.435 101 101 78.4277 101 50.5C101 22.565 78.4279 0 50.5 0ZM50.5 95.082C25.9174 95.082 5.91797 75.0826 5.91797 50.5C5.91797 25.9174 25.9174 5.91797 50.5 5.91797C75.0826 5.91797 95.082 25.9174 95.082 50.5C95.082 75.0826 75.0826 95.082 50.5 95.082Z" fill="url(#paint0_linear)"/>
<defs>
<linearGradient id="paint0_linear" x1="50.5" y1="101" x2="50.5" y2="0" gradientUnits="userSpaceOnUse">
<stop stop-color="#DEB478"/>
<stop offset="1" stop-color="#C39C64"/>
</linearGradient>
</defs>
</svg>
