<svg width="71" height="71" viewBox="0 0 71 71" fill="none" xmlns="http://www.w3.org/2000/svg">
<g clip-path="url(#clip0)">
<path d="M21.4962 29.1674C20.515 28.0971 18.8204 28.0078 17.75 28.989C16.6797 29.9702 16.5904 31.6648 17.5715 32.7353L31.0402 47.3635C31.5754 47.8987 32.1998 48.2554 32.9132 48.2554C32.9132 48.2554 32.9132 48.2554 33.0023 48.2554C33.716 48.2554 34.4295 47.9878 34.8754 47.4526L68.9485 13.4689C70.0188 12.3986 70.0188 10.7038 68.9485 9.72264C67.8783 8.65235 66.1835 8.65235 65.2023 9.72264L33.0918 41.744L21.4962 29.1674Z" fill="#BB955F"/>
<path d="M68.3242 32.8241C66.8078 32.8241 65.6484 33.9837 65.6484 35.4999C65.6484 52.0903 52.0907 65.6483 35.5001 65.6483C18.9095 65.6483 5.35178 52.0905 5.35178 35.5001C5.35178 18.9097 18.9095 5.35178 35.5001 5.35178C37.0165 5.35178 38.1759 4.1922 38.1759 2.67597C38.1759 1.15975 37.0163 0 35.5001 0C15.966 0 0 15.966 0 35.5001C0 55.0342 15.966 71.0002 35.5001 71.0002C55.0342 71.0002 71.0002 55.0342 71.0002 35.5001C71 33.9837 69.8406 32.8241 68.3242 32.8241Z" fill="#BB955F"/>
</g>
<defs>
<clipPath id="clip0">
<rect width="71" height="71" fill="white"/>
</clipPath>
</defs>
</svg>
